<svg width="350" height="350" viewBox="0 0 350 350" fill="#173854" xmlns="http://www.w3.org/2000/svg">
  <path d="M255.827 24.9265C285.514 39.2631 313.684 60.768 330.369 89.8757C346.838 118.983 351.822 155.477 349.438 192.839C346.838 229.984 336.653 267.78 312.383 290.371C288.114 312.962 249.759 320.13 212.921 329.037C176.3 337.943 141.413 348.586 108.042 343.373C74.6712 338.377 43.034 317.307 25.0485 288.851C7.27965 260.177 3.37918 224.119 1.21225 189.363C-0.954683 154.825 -1.17138 121.807 8.7965 90.7446C18.7644 59.6819 38.9168 30.357 66.4369 15.1515C93.9569 -0.0539648 128.628 -1.57452 161.782 1.03214C194.936 3.85602 226.14 10.5899 255.827 24.9265Z" fill="#173854"/>
</svg>