<?xml version="1.0" standalone="no"?>
<!DOCTYPE svg PUBLIC "-//W3C//DTD SVG 20010904//EN"
 "http://www.w3.org/TR/2001/REC-SVG-20010904/DTD/svg10.dtd">
<svg version="1.0" xmlns="http://www.w3.org/2000/svg"
 width="700.000000pt" height="700.000000pt" viewBox="0 0 700.000000 700.000000"
 preserveAspectRatio="xMidYMid meet">
<metadata>
Created by potrace 1.11, written by Peter Selinger 2001-2013
</metadata>
<g transform="translate(0.000000,700.000000) scale(0.100000,-0.100000)"
fill="#000000" stroke="none">
<path d="M3348 6325 c-2 -2 -41 -6 -88 -9 -47 -3 -94 -8 -105 -10 -11 -2 -42
-7 -70 -10 -27 -4 -66 -10 -85 -12 -107 -16 -440 -108 -515 -144 -11 -5 -49
-21 -85 -36 -334 -137 -685 -380 -946 -654 -88 -93 -143 -155 -144 -161 0 -3
-12 -19 -26 -35 -73 -83 -229 -323 -299 -462 -100 -197 -204 -476 -231 -621
-3 -12 -11 -51 -19 -85 -8 -33 -16 -74 -19 -91 -2 -16 -8 -50 -12 -75 -19
-116 -27 -235 -28 -410 0 -201 8 -306 35 -470 67 -400 223 -794 441 -1111 35
-51 68 -99 73 -108 6 -9 12 -18 15 -21 3 -3 21 -25 40 -50 19 -25 41 -52 49
-61 9 -9 36 -40 61 -69 60 -70 210 -216 290 -281 36 -30 67 -56 70 -59 3 -3
37 -28 75 -57 337 -246 741 -423 1130 -497 205 -39 324 -49 545 -50 270 0 442
21 711 89 365 92 751 285 1059 531 79 64 336 313 389 378 153 189 268 364 364
556 79 159 86 174 134 303 29 79 84 263 97 327 15 73 46 240 50 270 20 146 27
483 12 620 -10 91 -26 212 -31 241 -3 13 -8 38 -10 54 -23 130 -90 354 -152
509 -48 120 -189 399 -204 404 -5 2 -9 8 -9 14 0 5 -32 58 -72 116 -375 555
-949 965 -1598 1141 -89 24 -304 67 -375 75 -27 3 -72 9 -100 12 -54 6 -412
14 -417 9z"/>
</g>
</svg>
